# This file uses centimeters as units for non-parametric coordinates.

mtllib grassfinalpiecev2.mtl
g default
v 1.472188 -0.045149 -0.405889
v 1.003507 -0.045149 -0.405889
v 0.769166 -0.045149 -0.000000
v 1.003507 -0.045149 0.405889
v 1.472187 -0.045149 0.405889
v 1.706528 -0.045149 0.000000
v 1.472188 0.173936 -0.405889
v 1.003507 0.173936 -0.405889
v 0.769166 0.173936 -0.000000
v 1.003507 0.173936 0.405889
v 1.472187 0.173936 0.405889
v 1.706528 0.173936 0.000000
v 1.237847 -0.926220 0.000000
v 1.405518 0.173936 0.290414
v 1.070176 0.173936 -0.290414
v 0.902506 0.173936 -0.000000
v 1.070176 0.173936 0.290414
v 1.573188 0.173936 -0.000000
v 1.405518 0.173936 -0.290414
v 1.081803 0.549783 -0.000000
v 1.159833 0.549783 0.135133
v 1.175854 0.517052 0.107390
v 1.113835 0.517052 -0.000000
v 1.315886 0.549783 -0.135133
v 1.159833 0.549783 -0.135133
v 1.175854 0.517052 -0.107390
v 1.299865 0.517052 -0.107390
v 1.315886 0.549783 0.135133
v 1.393918 0.549783 -0.000000
v 1.361853 0.517052 -0.000000
v 1.299843 0.517052 0.107390
v 1.285423 0.485659 -0.082236
v 1.190466 0.485659 -0.082236
v 1.142987 0.485659 -0.000000
v 1.190466 0.485659 0.082236
v 1.285423 0.485659 0.082236
v 1.332902 0.485659 0.000000
v 1.320180 0.555173 -0.142436
v 1.155709 0.555173 -0.142436
v 1.073473 0.555173 -0.000000
v 1.155709 0.555173 0.142436
v 1.320180 0.555173 0.142436
v 1.402416 0.555173 0.000000
v 1.332902 0.650130 -0.164471
v 1.142987 0.650130 -0.164471
v 1.048029 0.650130 -0.000000
v 1.142987 0.650130 0.164471
v 1.332902 0.650130 0.164471
v 1.427860 0.650130 0.000000
v 1.320180 0.745088 -0.142436
v 1.155709 0.745088 -0.142436
v 1.073473 0.745088 -0.000000
v 1.155709 0.745088 0.142436
v 1.320180 0.745088 0.142436
v 1.402416 0.745088 0.000000
v 1.285423 0.814602 -0.082236
v 1.190466 0.814602 -0.082236
v 1.142987 0.814602 -0.000000
v 1.190466 0.814602 0.082236
v 1.285423 0.814602 0.082236
v 1.332902 0.814602 0.000000
v 1.237944 0.460215 0.000000
v 1.237944 0.840046 0.000000
vt 0.702007 0.988333
vt 0.442158 0.853911
vt 0.004316 0.264305
vt 0.409323 0.186123
vt 0.994563 0.989309
vt 0.004298 0.264309
vt 0.409314 0.186078
vt 0.850306 0.383291
vt 0.994759 0.989165
vt 0.409335 0.186103
vt 0.004300 0.264331
vt 0.000001 0.019546
vt 0.000001 0.175311
vt 1.666103 0.175311
vt 0.333221 0.019547
vt 0.333221 0.175311
vt 0.442149 0.854607
vt 0.666442 0.019547
vt 0.702201 0.988634
vt 0.666442 0.175311
vt 0.999662 0.019546
vt 0.999662 0.175311
vt 1.332883 0.019546
vt 1.332883 0.175311
vt 1.666103 0.019546
vt 1.999324 0.019546
vt 1.999324 0.175311
vt 0.272329 0.615692
vt 0.271958 0.616647
vt 0.849581 0.383368
vt 0.491346 0.209356
vt 0.491348 0.209356
vt 0.701901 0.209359
vt 0.491347 0.209358
vt 0.701902 0.209356
vt 0.701903 0.209356
vt 0.186574 0.546498
vt 0.293987 0.546516
vt 0.288008 0.579545
vt 0.192546 0.579526
vt 0.186553 0.546534
vt 0.293972 0.546552
vt 0.287988 0.579580
vt 0.192526 0.579564
vt 0.186580 0.546500
vt 0.293993 0.546515
vt 0.288000 0.579555
vt 0.192541 0.579541
vt 0.246771 0.730154
vt 0.120052 0.949638
vt 0.056693 0.839896
vt 0.120052 0.730154
vt 0.310130 0.839896
vt 0.246771 0.949638
vt 0.094859 0.993273
vt 0.006306 0.839896
vt 0.094859 0.686518
vt 0.271964 0.686518
vt 0.360517 0.839896
vt 0.271964 0.993273
vt 0.071342 0.186066
vt 0.071332 0.186039
vt 0.071354 0.186039
vt 0.161035 0.575070
vt 0.476350 0.264390
vt 0.319537 0.575104
vt 0.161011 0.575095
vt 0.476333 0.264414
vt 0.319503 0.575125
vt 0.161037 0.575059
vt 0.476329 0.264365
vt 0.319520 0.575086
vt 0.635558 0.453528
vt 0.557696 0.453526
vt 0.635553 0.453525
vt 0.557689 0.453528
vt 0.635565 0.453528
vt 0.557700 0.453528
vt 0.115673 0.552455
vt 0.136376 0.552455
vt 0.136376 0.573157
vt 0.115673 0.573157
vt 0.012161 0.552455
vt 0.032864 0.552455
vt 0.032864 0.573157
vt 0.012161 0.573157
vt 0.053566 0.552455
vt 0.053566 0.573157
vt 0.074268 0.552455
vt 0.074268 0.573157
vt 0.094971 0.552455
vt 0.094971 0.573157
vt 0.136376 0.593859
vt 0.115673 0.593859
vt 0.032864 0.593859
vt 0.012161 0.593859
vt 0.053566 0.593859
vt 0.074268 0.593859
vt 0.094971 0.593859
vt 0.136376 0.614562
vt 0.115673 0.614562
vt 0.032864 0.614562
vt 0.012161 0.614562
vt 0.053566 0.614562
vt 0.074268 0.614562
vt 0.094971 0.614562
vt 0.136376 0.635264
vt 0.115673 0.635264
vt 0.032864 0.635264
vt 0.012161 0.635264
vt 0.053566 0.635264
vt 0.074268 0.635264
vt 0.094971 0.635264
vt 0.063915 0.531752
vt 0.063915 0.655967
vn 0.000000 -0.278986 -0.960295
vn 0.000000 -0.278986 -0.960295
vn 0.000000 0.000000 -1.000000
vn 0.000000 0.000000 -1.000000
vn -0.831640 -0.278986 -0.480148
vn -0.831640 -0.278986 -0.480148
vn -0.866025 0.000000 -0.500000
vn -0.866025 0.000000 -0.500000
vn -0.831640 -0.278986 0.480148
vn -0.831640 -0.278986 0.480148
vn -0.866025 0.000000 0.500000
vn -0.866025 0.000000 0.500000
vn 0.000000 -0.278985 0.960295
vn 0.000000 -0.278985 0.960295
vn 0.000000 0.000000 1.000000
vn 0.000000 0.000000 1.000000
vn 0.831640 -0.278986 0.480148
vn 0.831640 -0.278986 0.480148
vn 0.866025 0.000000 0.500000
vn 0.866025 0.000000 0.500000
vn 0.831640 -0.278986 -0.480147
vn 0.831640 -0.278986 -0.480147
vn 0.866026 0.000000 -0.500000
vn 0.866026 0.000000 -0.500000
vn 0.000000 -0.418413 -0.908257
vn -0.786573 -0.418413 -0.454129
vn -0.786573 -0.418413 0.454128
vn 0.000000 -0.418413 0.908257
vn 0.786573 -0.418414 0.454128
vn 0.786574 -0.418413 -0.454128
vn 0.000000 1.000000 -0.000000
vn 0.000000 1.000000 -0.000000
vn 0.000000 1.000000 -0.000000
vn 0.000000 1.000000 -0.000000
vn 0.000000 1.000000 0.000000
vn 0.000000 1.000000 0.000000
vn 0.000000 1.000000 0.000000
vn 0.000000 1.000000 0.000000
vn 0.000000 1.000000 0.000000
vn 0.000000 1.000000 0.000000
vn 0.660595 0.646602 -0.381471
vn 0.660595 0.646602 -0.381471
vn 0.660595 0.646602 -0.381471
vn 0.660595 0.646602 -0.381471
vn 0.000000 1.000000 -0.000000
vn 0.000000 1.000000 -0.000000
vn 0.000000 1.000000 -0.000000
vn 0.000000 1.000000 -0.000000
vn 0.000000 1.000000 0.000000
vn 0.000000 1.000000 0.000000
vn 0.000000 1.000000 0.000000
vn 0.000000 1.000000 0.000000
vn 0.000000 0.646597 0.762832
vn 0.000000 0.646597 0.762832
vn 0.000000 0.646597 0.762832
vn 0.000000 0.646597 0.762832
vn -0.660373 0.646914 -0.381326
vn -0.660373 0.646914 -0.381326
vn -0.660373 0.646914 -0.381326
vn -0.660374 0.646914 -0.381326
vn -0.702674 0.584512 0.405703
vn -0.702674 0.584512 0.405703
vn -0.702674 0.584512 0.405703
vn -0.702674 0.584512 0.405703
vn 0.866017 -0.000003 0.500014
vn 0.866017 -0.000003 0.500014
vn 0.866017 -0.000003 0.500014
vn 0.866017 -0.000003 0.500014
vn 0.764099 -0.470646 -0.441185
vn 0.764100 -0.470646 -0.441185
vn 0.764100 -0.470646 -0.441185
vn 0.764099 -0.470646 -0.441185
vn 0.000000 -0.000000 -1.000000
vn 0.000000 -0.000000 -1.000000
vn 0.000000 -0.000000 -1.000000
vn 0.000000 -0.000000 -1.000000
vn 0.000000 0.584513 -0.811384
vn 0.000000 0.584513 -0.811384
vn 0.000000 0.584513 -0.811384
vn 0.000000 0.584513 -0.811384
vn -0.866017 0.000003 0.500014
vn -0.866017 0.000003 0.500014
vn -0.866017 0.000003 0.500014
vn -0.866017 0.000003 0.500014
vn 0.000000 -0.470646 0.882322
vn 0.000000 -0.470646 0.882322
vn 0.000000 -0.470646 0.882322
vn 0.000000 -0.470646 0.882322
vn 0.866022 -0.000048 0.500006
vn 0.866022 -0.000048 0.500006
vn 0.866022 -0.000048 0.500006
vn 0.866022 -0.000048 0.500006
vn 0.702692 0.584481 0.405716
vn 0.702692 0.584481 0.405716
vn 0.702692 0.584481 0.405716
vn 0.702692 0.584481 0.405716
vn 0.000000 -0.000000 -1.000000
vn 0.000000 -0.000000 -1.000000
vn 0.000000 -0.000000 -1.000000
vn 0.000000 -0.000000 -1.000000
vn -0.764105 -0.470648 -0.441173
vn -0.764105 -0.470648 -0.441173
vn -0.764105 -0.470648 -0.441173
vn -0.764105 -0.470648 -0.441173
vn -0.865970 0.000098 0.500096
vn -0.865970 0.000098 0.500096
vn -0.865970 0.000098 0.500096
vn -0.865970 0.000098 0.500096
vn 0.000000 -0.654653 -0.755929
vn 0.000000 -0.654653 -0.755929
vn 0.000000 -0.654653 -0.755929
vn 0.000000 -0.654653 -0.755929
vn -0.654654 -0.654653 -0.377965
vn -0.654654 -0.654653 -0.377965
vn -0.654654 -0.654653 -0.377965
vn -0.654654 -0.654653 -0.377965
vn -0.654654 -0.654653 0.377965
vn -0.654654 -0.654653 0.377965
vn -0.654654 -0.654653 0.377965
vn -0.654654 -0.654653 0.377965
vn -0.000000 -0.654653 0.755929
vn -0.000000 -0.654653 0.755929
vn -0.000000 -0.654653 0.755929
vn -0.000000 -0.654653 0.755929
vn 0.654654 -0.654653 0.377965
vn 0.654654 -0.654653 0.377965
vn 0.654654 -0.654653 0.377965
vn 0.654654 -0.654653 0.377965
vn 0.654654 -0.654653 -0.377965
vn 0.654654 -0.654653 -0.377965
vn 0.654654 -0.654653 -0.377965
vn 0.654654 -0.654653 -0.377965
vn 0.000000 -0.226044 -0.974117
vn 0.000000 -0.226044 -0.974117
vn 0.000000 -0.226044 -0.974117
vn 0.000000 -0.226044 -0.974117
vn -0.843610 -0.226045 -0.487059
vn -0.843610 -0.226045 -0.487059
vn -0.843610 -0.226045 -0.487059
vn -0.843610 -0.226045 -0.487059
vn -0.843610 -0.226045 0.487058
vn -0.843610 -0.226045 0.487058
vn -0.843610 -0.226045 0.487058
vn -0.843610 -0.226045 0.487058
vn 0.000000 -0.226045 0.974117
vn 0.000000 -0.226045 0.974117
vn 0.000000 -0.226045 0.974117
vn 0.000000 -0.226045 0.974117
vn 0.843610 -0.226045 0.487059
vn 0.843610 -0.226045 0.487059
vn 0.843610 -0.226045 0.487059
vn 0.843610 -0.226045 0.487059
vn 0.843610 -0.226044 -0.487059
vn 0.843610 -0.226044 -0.487059
vn 0.843610 -0.226044 -0.487059
vn 0.843610 -0.226044 -0.487059
vn 0.000000 0.226044 -0.974117
vn 0.000000 0.226044 -0.974117
vn 0.000000 0.226044 -0.974117
vn 0.000000 0.226044 -0.974117
vn -0.843610 0.226045 -0.487059
vn -0.843610 0.226045 -0.487059
vn -0.843610 0.226045 -0.487059
vn -0.843610 0.226045 -0.487059
vn -0.843610 0.226045 0.487058
vn -0.843610 0.226045 0.487058
vn -0.843610 0.226045 0.487058
vn -0.843610 0.226045 0.487058
vn 0.000000 0.226045 0.974117
vn 0.000000 0.226045 0.974117
vn 0.000000 0.226045 0.974117
vn 0.000000 0.226045 0.974117
vn 0.843610 0.226045 0.487059
vn 0.843610 0.226045 0.487059
vn 0.843610 0.226045 0.487059
vn 0.843610 0.226045 0.487059
vn 0.843610 0.226044 -0.487059
vn 0.843610 0.226044 -0.487059
vn 0.843610 0.226044 -0.487059
vn 0.843610 0.226044 -0.487059
vn 0.000000 0.654653 -0.755929
vn 0.000000 0.654653 -0.755929
vn 0.000000 0.654653 -0.755929
vn 0.000000 0.654653 -0.755929
vn -0.654654 0.654653 -0.377965
vn -0.654654 0.654653 -0.377965
vn -0.654654 0.654653 -0.377965
vn -0.654654 0.654653 -0.377965
vn -0.654654 0.654653 0.377965
vn -0.654654 0.654653 0.377965
vn -0.654654 0.654653 0.377965
vn -0.654654 0.654653 0.377965
vn -0.000000 0.654653 0.755929
vn -0.000000 0.654653 0.755929
vn -0.000000 0.654653 0.755929
vn -0.000000 0.654653 0.755929
vn 0.654654 0.654653 0.377965
vn 0.654654 0.654653 0.377965
vn 0.654654 0.654653 0.377965
vn 0.654654 0.654653 0.377965
vn 0.654654 0.654654 -0.377965
vn 0.654654 0.654654 -0.377965
vn 0.654654 0.654654 -0.377965
vn 0.654654 0.654654 -0.377965
vn 0.000000 -0.955319 -0.295577
vn 0.000000 -0.955319 -0.295577
vn 0.000000 -0.955319 -0.295577
vn -0.255976 -0.955319 -0.147788
vn -0.255976 -0.955319 -0.147788
vn -0.255976 -0.955319 -0.147788
vn -0.255976 -0.955319 0.147788
vn -0.255976 -0.955319 0.147788
vn -0.255976 -0.955319 0.147788
vn -0.000000 -0.955319 0.295577
vn -0.000000 -0.955319 0.295577
vn -0.000000 -0.955319 0.295577
vn 0.255976 -0.955319 0.147787
vn 0.255976 -0.955319 0.147787
vn 0.255976 -0.955319 0.147788
vn 0.255976 -0.955319 -0.147788
vn 0.255976 -0.955319 -0.147788
vn 0.255976 -0.955319 -0.147788
vn 0.000000 0.955318 -0.295580
vn 0.000000 0.955318 -0.295580
vn 0.000000 0.955318 -0.295580
vn -0.255977 0.955319 -0.147789
vn -0.255977 0.955319 -0.147789
vn -0.255977 0.955319 -0.147789
vn -0.255977 0.955319 0.147789
vn -0.255977 0.955319 0.147789
vn -0.255977 0.955319 0.147789
vn -0.000000 0.955318 0.295580
vn -0.000000 0.955318 0.295580
vn -0.000000 0.955318 0.295580
vn 0.255977 0.955319 0.147789
vn 0.255977 0.955319 0.147789
vn 0.255977 0.955319 0.147789
vn 0.255977 0.955319 -0.147789
vn 0.255977 0.955319 -0.147789
vn 0.255977 0.955319 -0.147789
s 1
g Grassfinalpiece1
usemtl initialShadingGroup
f 1/25/1 2/26/2 8/27/3 7/14/4
s 2
f 2/12/5 3/15/6 9/16/7 8/13/8
s 3
f 3/15/9 4/18/10 10/20/11 9/16/12
s 4
f 4/18/13 5/21/14 11/22/15 10/20/16
s 5
f 5/21/17 6/23/18 12/24/19 11/22/20
s 6
f 6/23/21 1/25/22 7/14/23 12/24/24
s 1
f 2/1/2 1/2/1 13/8/25
s 2
f 3/5/6 2/1/5 13/8/26
s 3
f 4/17/10 3/29/9 13/30/27
s 4
f 5/19/14 4/17/13 13/30/28
s 5
f 6/9/18 5/19/17 13/30/29
s 6
f 1/2/22 6/28/21 13/8/30
s 7
f 14/49/31 15/50/32 16/51/33 17/52/34
f 18/53/35 19/54/36 15/50/32 14/49/31
s off
f 8/55/37 9/56/38 16/51/39 15/50/40
f 20/37/41 21/38/42 22/39/43 23/40/44
f 10/57/45 11/58/46 14/49/47 17/52/48
f 12/59/49 7/60/50 19/54/51 18/53/52
f 24/41/53 25/42/54 26/43/55 27/44/56
f 28/45/57 29/46/58 30/47/59 31/48/60
f 9/62/61 10/7/62 21/38/63 20/37/64
f 10/7/65 17/71/66 22/72/67 21/38/68
f 17/32/69 16/33/70 23/75/71 22/76/72
f 16/6/73 9/62/74 20/37/75 23/70/76
f 7/61/77 8/4/78 25/42/79 24/41/80
f 8/4/81 15/68/82 26/69/83 25/42/84
f 15/31/85 19/36/86 27/77/87 26/78/88
f 19/11/89 7/61/90 24/41/91 27/67/92
f 11/63/93 12/10/94 29/46/95 28/45/96
f 12/10/97 18/65/98 30/66/99 29/46/100
f 18/34/101 14/35/102 31/73/103 30/74/104
f 14/3/105 11/63/106 28/45/107 31/64/108
f 32/79/109 33/80/110 39/81/111 38/82/112
f 33/83/113 34/84/114 40/85/115 39/86/116
f 34/84/117 35/87/118 41/88/119 40/85/120
f 35/87/121 36/89/122 42/90/123 41/88/124
f 36/89/125 37/91/126 43/92/127 42/90/128
f 37/91/129 32/79/130 38/82/131 43/92/132
f 38/82/133 39/81/134 45/93/135 44/94/136
f 39/86/137 40/85/138 46/95/139 45/96/140
f 40/85/141 41/88/142 47/97/143 46/95/144
f 41/88/145 42/90/146 48/98/147 47/97/148
f 42/90/149 43/92/150 49/99/151 48/98/152
f 43/92/153 38/82/154 44/94/155 49/99/156
f 44/94/157 45/93/158 51/100/159 50/101/160
f 45/96/161 46/95/162 52/102/163 51/103/164
f 46/95/165 47/97/166 53/104/167 52/102/168
f 47/97/169 48/98/170 54/105/171 53/104/172
f 48/98/173 49/99/174 55/106/175 54/105/176
f 49/99/177 44/94/178 50/101/179 55/106/180
f 50/101/181 51/100/182 57/107/183 56/108/184
f 51/103/185 52/102/186 58/109/187 57/110/188
f 52/102/189 53/104/190 59/111/191 58/109/192
f 53/104/193 54/105/194 60/112/195 59/111/196
f 54/105/197 55/106/198 61/113/199 60/112/200
f 55/106/201 50/101/202 56/108/203 61/113/204
f 33/80/205 32/79/206 62/114/207
f 34/84/208 33/83/209 62/114/210
f 35/87/211 34/84/212 62/114/213
f 36/89/214 35/87/215 62/114/216
f 37/91/217 36/89/218 62/114/219
f 32/79/220 37/91/221 62/114/222
f 56/108/223 57/107/224 63/115/225
f 57/110/226 58/109/227 63/115/228
f 58/109/229 59/111/230 63/115/231
f 59/111/232 60/112/233 63/115/234
f 60/112/235 61/113/236 63/115/237
f 61/113/238 56/108/239 63/115/240
