# This file uses centimeters as units for non-parametric coordinates.

mtllib hillmonument.mtl
g default
v -2.714915 0.070370 6.826790
v 2.714915 0.070370 6.826790
v -1.321436 11.538378 6.823033
v 1.321436 11.538378 6.823033
v -1.321436 11.538378 1.280088
v 1.321436 11.538378 1.280088
v -2.714915 0.070369 -1.500000
v 2.714915 0.070369 -1.500000
v -0.600000 0.070370 6.826790
v -0.600000 0.070369 -1.500000
v -0.292039 11.538378 1.280088
v -0.292039 11.538378 6.823033
v 0.600000 0.070370 6.826790
v 0.292039 11.538378 6.823033
v 0.292039 11.538378 1.280088
v 0.600000 0.070369 -1.500000
v 0.560903 1.543869 -1.154412
v -0.560903 1.543870 -1.154412
v -2.506192 1.808877 -1.092258
v -0.553872 1.808880 -1.092257
v 0.553872 1.808877 -1.092258
v 2.506192 1.808877 -1.092258
v 2.506191 1.808881 7.003893
v 0.553872 1.808881 7.003893
v -0.553872 1.808876 7.003892
v -2.506192 1.808881 7.003893
v 0.276936 1.808879 -1.092258
v -0.276936 1.808880 -1.092257
v -0.545728 2.115825 -1.020268
v 0.545728 2.115823 -1.020268
v 0.560903 1.543869 2.546669
v 0.600000 0.070369 2.201080
v -0.600000 0.070369 2.201080
v -0.560903 1.543869 2.546669
v 0.276936 1.808878 2.608823
v -0.276936 1.808881 2.608823
v 0.600000 -32.997486 -1.500000
v 2.714915 -32.997486 -1.500000
v 2.714915 -32.997486 6.826790
v 0.600000 -32.997486 6.826790
v -0.600000 -32.997486 -1.500000
v -0.600000 -32.997486 6.826790
v -2.714915 -32.997486 -1.500000
v -2.714915 -32.997486 6.826790
vt 0.464958 0.046098
vt 0.671617 0.714606
vt 0.369631 0.655127
vt 0.297340 0.655136
vt 0.297295 0.265874
vt 0.369586 0.265866
vt 0.710893 0.543817
vt 0.676613 0.543813
vt 0.987597 0.543846
vt 0.953317 0.543842
vt 0.603827 0.994482
vt 0.445543 0.994456
vt 0.192207 0.721235
vt 0.180935 0.672835
vt 0.440658 0.046100
vt 0.953374 0.007862
vt 0.899887 0.559636
vt 0.410648 0.655123
vt 0.410604 0.265861
vt 0.439643 0.007766
vt 0.987653 0.007866
vt 0.482939 0.655114
vt 0.482894 0.265853
vt 0.775703 0.575679
vt 0.859137 0.986322
vt 0.902897 0.989212
vt 0.411102 0.672827
vt 0.126874 0.093783
vt 0.142638 0.108890
vt 0.127266 0.108892
vt 0.173381 0.108887
vt 0.440424 0.714568
vt 0.683269 0.664607
vt 0.465967 0.007764
vt 0.397831 0.046104
vt 0.393249 0.007770
vt 0.884859 0.986324
vt 0.189142 0.093777
vt 0.188753 0.108886
vt 0.841099 0.989208
vt 0.845960 0.801800
vt 0.884869 0.814444
vt 0.902908 0.817332
vt 0.676670 0.007833
vt 0.710949 0.007836
vt 0.933867 0.543840
vt 0.933923 0.007860
vt 0.730343 0.543819
vt 0.899587 0.543837
vt 0.730400 0.007839
vt 0.899644 0.007856
vt 0.308696 0.009757
vt 0.297120 0.108876
vt 0.191304 0.009768
vt 0.018899 0.108903
vt 0.188303 0.126386
vt 0.231412 0.664757
vt 0.174274 0.664763
vt 0.127720 0.126391
vt 0.141854 0.664766
vt 0.084715 0.664771
vt 0.007303 0.009786
vt 0.124695 0.009775
vt 0.415999 0.721227
vt 0.411009 0.992155
vt 0.257792 0.992160
vt 0.507785 0.046094
vt 0.512360 0.007760
vt 0.481814 0.259563
vt 0.459232 0.259565
vt 0.446420 0.259566
vt 0.423839 0.259568
vt 0.445490 0.664568
vt 0.764622 0.543822
vt 0.764679 0.007842
vt 0.541648 0.543799
vt 0.541705 0.007819
vt 0.953238 0.007904
vt 0.987517 0.007908
vt 0.987503 0.142872
vt 0.953223 0.142869
vt 0.933788 0.007902
vt 0.933773 0.142867
vt 0.899508 0.007898
vt 0.899494 0.142863
vt 0.844158 0.559633
vt 0.899877 0.731517
vt 0.844149 0.731514
vt 0.968340 0.575690
vt 0.968331 0.747570
vt 0.841109 0.817328
vt 0.859147 0.814442
vt 0.898058 0.801803
vt 0.775694 0.747559
vn 0.000000 -0.004840 0.999988
vn 0.000000 -0.004841 0.999988
vn 0.000000 -0.004924 0.999988
vn 0.000000 -0.004924 0.999988
vn 0.000000 0.228340 -0.973582
vn 0.000000 0.228340 -0.973582
vn 0.000000 0.228340 -0.973582
vn 0.000000 0.228340 -0.973581
vn -0.000000 0.228340 -0.973582
vn -0.000000 0.228340 -0.973582
vn -0.000000 0.009751 -0.999953
vn -0.000742 0.235180 -0.971952
vn -0.000000 0.010661 -0.999943
vn 0.000000 -0.008061 0.999968
vn 0.000000 -0.004548 0.999990
vn 0.000000 -0.008061 0.999968
vn 0.000000 -0.004548 0.999990
vn 0.000742 0.235180 -0.971952
vn 0.000000 0.228340 -0.973582
vn 0.000000 0.228340 -0.973582
vn 0.000000 0.228340 -0.973582
vn 0.000000 0.228340 -0.973582
vn -0.000626 0.236964 -0.971518
vn -0.000949 0.237094 -0.971486
vn -0.000603 0.237121 -0.971480
vn 0.000626 0.236964 -0.971518
vn 0.000000 0.018586 0.999827
vn 0.000000 0.018586 0.999827
vn 0.000000 0.018586 0.999827
vn 0.000000 0.018585 0.999827
vn 0.000001 0.228338 -0.973582
vn 0.000001 0.228338 -0.973582
vn 0.000001 0.228338 -0.973582
vn 0.000001 0.228338 -0.973582
vn 0.000603 0.237121 -0.971480
vn 0.000949 0.237094 -0.971486
vn 0.000000 0.009751 -0.999953
vn 0.000000 0.010661 -0.999943
vn 0.000000 1.000000 0.000000
vn 0.000000 1.000000 0.000000
vn 0.000000 1.000000 0.000000
vn 0.000000 1.000000 0.000000
vn 0.000000 1.000000 -0.000000
vn 0.000000 1.000000 -0.000000
vn 0.000000 1.000000 -0.000000
vn 0.000000 1.000000 -0.000000
vn 0.992713 0.120500 0.000000
vn 0.992668 0.120877 0.000000
vn 0.992668 0.120877 0.000000
vn 0.992702 0.120593 0.000000
vn 0.999987 0.005092 0.000000
vn 0.999980 0.006278 0.000000
vn 0.000000 -1.000000 -0.000000
vn 0.000000 -1.000000 -0.000000
vn 0.000000 -1.000000 -0.000000
vn 0.000000 -1.000000 -0.000000
vn 0.000000 -1.000000 0.000000
vn 0.000000 -1.000000 0.000000
vn 0.000000 -1.000000 -0.000000
vn 0.000000 -1.000000 -0.000000
vn -0.992713 0.120500 -0.000000
vn -0.999987 0.005092 0.000000
vn -0.999980 0.006277 0.000000
vn -0.992702 0.120593 -0.000000
vn -0.992668 0.120877 -0.000000
vn -0.992668 0.120877 -0.000000
vn -0.999648 -0.026524 -0.000000
vn -0.999648 -0.026524 -0.000000
vn -0.999648 -0.026524 -0.000000
vn -0.999648 -0.026524 -0.000000
vn 0.000000 1.000000 0.000000
vn 0.000000 1.000000 0.000000
vn 0.000000 1.000000 0.000000
vn 0.000000 1.000000 0.000000
vn 0.999648 -0.026524 -0.000000
vn 0.999648 -0.026524 -0.000000
vn 0.999648 -0.026524 -0.000000
vn 0.999648 -0.026524 -0.000000
vn -0.682281 -0.731090 -0.000000
vn -0.682281 -0.731090 -0.000000
vn -0.682281 -0.731090 -0.000000
vn -0.682281 -0.731090 -0.000000
vn 0.682284 -0.731087 0.000000
vn 0.682284 -0.731087 0.000000
vn 0.682284 -0.731087 0.000000
vn 0.682284 -0.731087 0.000000
vn -0.000004 -1.000000 0.000000
vn -0.000004 -1.000000 0.000000
vn -0.000004 -1.000000 0.000000
vn -0.000004 -1.000000 0.000000
vn 0.000000 0.000000 -1.000000
vn 0.000000 0.000000 -1.000000
vn 1.000000 0.000000 0.000000
vn 1.000000 0.000000 0.000000
vn 0.000000 0.000000 1.000000
vn 0.000000 0.000000 1.000000
vn 0.000000 0.000000 -1.000000
vn 0.000000 0.000000 -1.000000
vn 0.000000 0.000000 -1.000000
vn 0.000000 0.000000 -1.000000
vn 0.000000 0.000000 1.000000
vn 0.000000 0.000000 1.000000
vn 0.000000 0.000000 -1.000000
vn 0.000000 0.000000 -1.000000
vn 0.000000 0.000000 1.000000
vn 0.000000 0.000000 1.000000
vn -1.000000 0.000000 0.000000
vn -1.000000 0.000000 0.000000
s 1
g pCube2
usemtl initialShadingGroup
f 24/1/1 25/15/2 9/20/3 13/34/4
s 2
f 17/28/5 27/29/6 21/30/7
f 28/31/8 18/38/9 20/39/10
f 7/52/11 19/53/12 18/38/9 10/54/13
s 1
f 9/20/3 25/15/2 26/35/14 1/36/15
f 23/67/16 24/1/1 13/34/4 2/68/17
s 2
f 22/55/18 17/28/5 21/30/7
s off
f 31/41/19 32/88/20 33/87/21 34/93/22
s 2
f 29/56/23 19/53/12 5/57/24 11/58/25
f 27/29/6 30/59/26 21/30/7
f 22/55/18 21/30/7 30/59/26
s 1
f 24/1/1 23/67/16 4/69/27 14/70/28
f 25/15/2 24/1/1 14/70/28 12/71/29
f 26/35/14 25/15/2 12/71/29 3/72/30
s off
f 35/92/31 31/41/32 34/93/33 36/42/34
s 2
f 11/58/25 15/60/35 30/59/26 29/56/23
f 29/56/23 30/59/26 27/29/6 28/31/8
f 29/56/23 28/31/8 20/39/10
f 19/53/12 29/56/23 20/39/10
f 19/53/12 20/39/10 18/38/9
f 22/55/18 30/59/26 15/60/35 6/61/36
f 17/28/5 22/55/18 8/62/37 16/63/38
s 5
f 11/3/39 5/4/40 3/5/41 12/6/42
f 15/18/43 11/3/39 12/6/42 14/19/44
f 6/22/45 15/18/43 14/19/44 4/23/46
s 6
f 22/2/47 6/11/48 4/12/49 23/32/50
f 8/33/51 22/2/47 23/32/50 2/73/52
s 7
f 37/78/53 38/79/54 39/80/55 40/81/56
f 41/82/57 37/78/53 40/81/56 42/83/58
f 43/84/59 41/82/57 42/83/58 44/85/60
s 8
f 19/13/61 7/14/62 1/27/63 26/64/64
f 3/65/65 5/66/66 19/13/61 26/64/64
s off
f 17/24/67 16/86/68 32/88/69 31/94/70
f 16/86/71 10/17/72 33/87/73 32/88/74
f 10/17/75 18/89/76 34/90/77 33/87/78
f 27/25/79 17/40/80 31/91/81 35/92/82
f 18/26/83 28/37/84 36/42/85 34/43/86
f 28/37/87 27/25/88 35/92/89 36/42/90
s 2
f 16/7/38 8/8/37 38/44/91 37/45/92
s 6
f 8/8/51 2/76/52 39/77/93 38/44/94
s 1
f 2/9/17 13/10/4 40/16/95 39/21/96
s off
f 10/48/97 16/7/98 37/45/99 41/50/100
s 1
f 13/10/4 9/46/3 42/47/101 40/16/102
s 2
f 7/74/11 10/48/13 41/50/103 43/75/104
s 1
f 9/46/3 1/49/15 44/51/105 42/47/106
s 8
f 1/49/63 7/74/62 43/75/107 44/51/108
