# This file uses centimeters as units for non-parametric coordinates.

mtllib tumble_leveltile.mtl
g default
v -1.000000 -15.000000 1.000000
v 1.000000 -15.000000 1.000000
v -1.000000 15.000000 1.000000
v 1.000000 15.000000 1.000000
v -1.000000 15.000000 -1.000000
v 1.000000 15.000000 -1.000000
v -1.000000 -15.000000 -1.000000
v 1.000000 -15.000000 -1.000000
vt 0.066667 0.000000
vt 0.133334 0.000000
vt 0.133334 1.000000
vt 0.066667 1.000000
vt 0.693994 0.405595
vt 0.693994 0.693977
vt 0.405612 0.693977
vt 0.405612 0.405595
vt 0.266667 1.000000
vt 0.200000 1.000000
vt 0.200000 0.000000
vt 0.266667 0.000000
vt -0.000000 0.000000
vt 0.000000 1.000000
vn 0.000000 0.000000 1.000000
vn 0.000000 0.000000 1.000000
vn 0.000000 0.000000 1.000000
vn 0.000000 0.000000 1.000000
vn 0.000000 1.000000 0.000000
vn 0.000000 1.000000 0.000000
vn 0.000000 1.000000 0.000000
vn 0.000000 1.000000 0.000000
vn 0.000000 0.000000 -1.000000
vn 0.000000 0.000000 -1.000000
vn 0.000000 0.000000 -1.000000
vn 0.000000 0.000000 -1.000000
vn 1.000000 0.000000 0.000000
vn 1.000000 0.000000 0.000000
vn 1.000000 0.000000 0.000000
vn 1.000000 0.000000 0.000000
vn -1.000000 0.000000 0.000000
vn -1.000000 0.000000 0.000000
vn -1.000000 0.000000 0.000000
vn -1.000000 0.000000 0.000000
s off
g tumble_leveltile:pCube1
usemtl tumble_leveltile:initialShadingGroup
f 1/1/1 2/2/2 4/3/3 3/4/4
f 3/5/5 4/6/6 6/7/7 5/8/8
f 5/9/9 6/10/10 8/11/11 7/12/12
f 2/2/13 8/11/14 6/10/15 4/3/16
f 7/13/17 1/1/18 3/4/19 5/14/20
