# This file uses centimeters as units for non-parametric coordinates.

mtllib lavafinalpiece.mtl
g default
v -1.318447 -0.161573 -0.405889
v -1.787127 -0.161573 -0.405889
v -2.021468 -0.161573 -0.000000
v -1.787127 -0.161573 0.405889
v -1.318447 -0.161573 0.405889
v -1.084106 -0.161573 0.000000
v -1.318447 0.161573 -0.405889
v -1.787127 0.161573 -0.405889
v -2.021468 0.161573 -0.000000
v -1.787127 0.161573 0.405889
v -1.318447 0.161573 0.405889
v -1.084106 0.161573 0.000000
v -1.552787 -0.951053 0.000000
v -1.405581 0.399679 -0.254968
v -1.699993 0.399679 -0.254968
v -1.847199 0.399679 -0.000000
v -1.699993 0.399679 0.254968
v -1.405581 0.399679 0.254968
v -1.258375 0.399679 -0.000000
v -1.451771 0.401391 -0.174966
v -1.653804 0.401391 -0.174966
v -1.754820 0.401391 -0.000000
v -1.653804 0.401391 0.174966
v -1.451771 0.401391 0.174966
v -1.350754 0.401391 -0.000000
v -1.464470 0.358959 -0.152970
v -1.641105 0.358959 -0.152970
v -1.552787 0.356772 -0.000000
v -1.729422 0.358959 -0.000000
v -1.641105 0.358959 0.152970
v -1.464470 0.358959 0.152970
v -1.376152 0.358959 -0.000000
vt 0.992769 0.666325
vt 0.738584 0.666325
vt 0.415721 0.986845
vt 0.154306 0.984697
vt 0.528095 0.523830
vt 0.216558 0.866137
vt 0.433673 0.287834
vt 0.344133 0.873670
vt 0.865676 0.251876
vt 0.025487 0.757379
vt 0.528095 0.523830
vt 0.159292 0.751935
vt 0.157833 0.532134
vt 0.229532 0.645235
vt 0.000001 0.013219
vt 0.000001 0.242968
vt 1.666103 0.242968
vt 0.254388 0.478399
vt 0.333221 0.013219
vt 0.333221 0.242968
vt 0.738584 0.666324
vt 0.666442 0.013219
vt 0.433673 0.287834
vt 0.666442 0.242968
vt 0.992769 0.666324
vt 0.999662 0.013219
vt 0.999662 0.242968
vt 1.332883 0.013219
vt 1.332883 0.242968
vt 1.666103 0.013219
vt 1.999324 0.013219
vt 1.999324 0.242968
vt 0.148418 0.477008
vt 0.865676 0.251876
vt 0.419155 0.534034
vt 0.357074 0.652686
vt 0.548185 0.761385
vt 0.414400 0.766918
vt 0.238619 0.832624
vt 0.326130 0.837799
vt 0.199347 0.754277
vt 0.247555 0.681088
vt 0.202607 0.385930
vt 0.096637 0.384540
vt 0.150826 0.293461
vt 0.256798 0.294853
vt 0.308577 0.387322
vt 0.270330 0.504726
vt 0.133589 0.503977
vt 0.065866 0.385184
vt 0.134885 0.267133
vt 0.271628 0.267884
vt 0.339348 0.386679
vt 0.374341 0.764595
vt 0.335053 0.686235
vn 0.000000 0.000000 -1.000000
vn 0.000000 0.000000 -1.000000
vn 0.000000 0.000000 -1.000000
vn 0.000000 0.000000 -1.000000
vn -0.866025 0.000000 -0.500000
vn -0.866025 0.000000 -0.500000
vn -0.866025 0.000000 -0.500000
vn -0.866025 0.000000 -0.500000
vn -0.866025 0.000000 0.500000
vn -0.866025 0.000000 0.500000
vn -0.866025 0.000000 0.500000
vn -0.866025 0.000000 0.500000
vn 0.000000 0.000000 1.000000
vn 0.000000 0.000000 1.000000
vn 0.000000 0.000000 1.000000
vn 0.000000 0.000000 1.000000
vn 0.866025 0.000000 0.500000
vn 0.866025 0.000000 0.500000
vn 0.866025 0.000000 0.500000
vn 0.866025 0.000000 0.500000
vn 0.866026 0.000000 -0.500000
vn 0.866026 0.000000 -0.500000
vn 0.866026 0.000000 -0.500000
vn 0.866026 0.000000 -0.500000
vn 0.000000 -0.457233 -0.889347
vn 0.000000 -0.457233 -0.889347
vn 0.000000 -0.457233 -0.889347
vn -0.770197 -0.457233 -0.444674
vn -0.770197 -0.457233 -0.444674
vn -0.770197 -0.457233 -0.444674
vn -0.770197 -0.457233 0.444674
vn -0.770197 -0.457233 0.444674
vn -0.770197 -0.457233 0.444674
vn 0.000000 -0.457233 0.889347
vn 0.000000 -0.457233 0.889347
vn 0.000000 -0.457233 0.889347
vn 0.770197 -0.457233 0.444674
vn 0.770197 -0.457233 0.444674
vn 0.770197 -0.457233 0.444674
vn 0.770197 -0.457233 -0.444673
vn 0.770197 -0.457233 -0.444673
vn 0.770197 -0.457233 -0.444673
vn -0.000000 0.999898 0.014295
vn -0.000000 0.999898 0.014295
vn -0.000000 0.999898 0.014295
vn 0.012380 0.999898 0.007148
vn 0.012380 0.999898 0.007148
vn 0.012380 0.999898 0.007148
vn 0.012380 0.999898 -0.007148
vn 0.012380 0.999898 -0.007148
vn 0.012380 0.999898 -0.007148
vn 0.000000 0.999898 -0.014295
vn 0.000000 0.999898 -0.014295
vn 0.000000 0.999898 -0.014295
vn -0.012380 0.999898 -0.007148
vn -0.012380 0.999898 -0.007148
vn -0.012380 0.999898 -0.007148
vn -0.012380 0.999898 0.007148
vn -0.012380 0.999898 0.007148
vn -0.012380 0.999898 0.007148
vn 0.000000 0.535357 -0.844626
vn 0.000000 0.535357 -0.844626
vn 0.000000 0.535357 -0.844626
vn 0.000000 0.535357 -0.844626
vn -0.731467 0.535358 -0.422313
vn -0.731467 0.535358 -0.422313
vn -0.731467 0.535358 -0.422313
vn -0.731467 0.535358 -0.422313
vn -0.731467 0.535358 0.422313
vn -0.731467 0.535358 0.422313
vn -0.731467 0.535358 0.422313
vn -0.731467 0.535358 0.422313
vn 0.000000 0.535357 0.844626
vn 0.000000 0.535357 0.844626
vn 0.000000 0.535357 0.844626
vn 0.000000 0.535357 0.844626
vn 0.731467 0.535358 0.422313
vn 0.731467 0.535358 0.422313
vn 0.731467 0.535358 0.422313
vn 0.731467 0.535358 0.422313
vn 0.731467 0.535357 -0.422313
vn 0.731467 0.535357 -0.422313
vn 0.731467 0.535357 -0.422313
vn 0.731467 0.535357 -0.422313
vn 0.000000 0.999771 -0.021391
vn 0.000000 0.999771 -0.021391
vn 0.000000 0.999771 -0.021391
vn 0.000000 0.999771 -0.021391
vn -0.018525 0.999771 -0.010695
vn -0.018525 0.999771 -0.010695
vn -0.018525 0.999771 -0.010695
vn -0.018525 0.999771 -0.010695
vn -0.018525 0.999771 0.010695
vn -0.018525 0.999771 0.010695
vn -0.018525 0.999771 0.010695
vn -0.018525 0.999771 0.010695
vn 0.000000 0.999771 0.021391
vn 0.000000 0.999771 0.021391
vn 0.000000 0.999771 0.021391
vn 0.000000 0.999771 0.021391
vn 0.018525 0.999771 0.010695
vn 0.018525 0.999771 0.010695
vn 0.018525 0.999771 0.010695
vn 0.018525 0.999771 0.010695
vn 0.018525 0.999771 -0.010695
vn 0.018525 0.999771 -0.010695
vn 0.018525 0.999771 -0.010695
vn 0.018525 0.999771 -0.010695
vn -0.000000 0.460217 0.887806
vn -0.000000 0.460217 0.887806
vn -0.000000 0.460217 0.887806
vn -0.000000 0.460217 0.887806
vn 0.768864 0.460215 0.443903
vn 0.768864 0.460215 0.443903
vn 0.768864 0.460215 0.443903
vn 0.768864 0.460215 0.443903
vn 0.768864 0.460214 -0.443904
vn 0.768864 0.460214 -0.443904
vn 0.768864 0.460214 -0.443904
vn 0.768864 0.460214 -0.443904
vn 0.000000 0.460218 -0.887806
vn 0.000000 0.460218 -0.887806
vn 0.000000 0.460218 -0.887806
vn 0.000000 0.460218 -0.887806
vn -0.768864 0.460216 -0.443903
vn -0.768864 0.460216 -0.443903
vn -0.768864 0.460216 -0.443903
vn -0.768864 0.460216 -0.443903
vn -0.768864 0.460215 0.443904
vn -0.768864 0.460215 0.443903
vn -0.768864 0.460215 0.443904
vn -0.768864 0.460215 0.443903
s off
g lavafinalpiece
usemtl initialShadingGroup
f 1/30/1 2/31/2 8/32/3 7/17/4
f 2/15/5 3/19/6 9/20/7 8/16/8
f 3/19/9 4/22/10 10/24/11 9/20/12
f 4/22/13 5/26/14 11/27/15 10/24/16
f 5/26/17 6/28/18 12/29/19 11/27/20
f 6/28/21 1/30/22 7/17/23 12/29/24
f 2/1/25 1/2/26 13/34/27
f 3/5/28 2/7/29 13/9/30
f 4/21/31 3/5/32 13/9/33
f 5/25/34 4/21/35 13/9/36
f 6/11/37 5/23/38 13/34/39
f 1/2/40 6/11/41 13/34/42
f 26/18/43 27/33/44 28/43/45
f 27/33/46 29/44/47 28/43/48
f 29/44/49 30/45/50 28/43/51
f 30/45/52 31/46/53 28/43/54
f 31/46/55 32/47/56 28/43/57
f 32/47/58 26/18/59 28/43/60
f 7/3/61 8/4/62 15/6/63 14/8/64
f 8/4/65 9/10/66 16/12/67 15/6/68
f 9/10/69 10/13/70 17/14/71 16/12/72
f 10/13/73 11/35/74 18/36/75 17/14/76
f 11/35/77 12/37/78 19/38/79 18/36/80
f 12/37/81 7/3/82 14/8/83 19/38/84
f 14/8/85 15/6/86 21/39/87 20/40/88
f 15/6/89 16/12/90 22/41/91 21/39/92
f 16/12/93 17/14/94 23/42/95 22/41/96
f 17/14/97 18/36/98 24/55/99 23/42/100
f 18/36/101 19/38/102 25/54/103 24/55/104
f 19/38/105 14/8/106 20/40/107 25/54/108
f 20/48/109 21/49/110 27/33/111 26/18/112
f 21/49/113 22/50/114 29/44/115 27/33/116
f 22/50/117 23/51/118 30/45/119 29/44/120
f 23/51/121 24/52/122 31/46/123 30/45/124
f 24/52/125 25/53/126 32/47/127 31/46/128
f 25/53/129 20/48/130 26/18/131 32/47/132
